<?xml version="1.0" encoding="utf-8"?>
<!-- Generator: Adobe Illustrator 26.1.0, SVG Export Plug-In . SVG Version: 6.00 Build 0)  -->
<svg version="1.1" id="레이어_1" xmlns="http://www.w3.org/2000/svg" xmlns:xlink="http://www.w3.org/1999/xlink" x="0px"
	 y="0px" viewBox="0 0 669.3 100" style="enable-background:new 0 0 669.3 100;" xml:space="preserve">
<style type="text/css">
	.st0{clip-path:url(#SVGID_00000168819371162265282640000014268256079222607515_);fill:#0031FF;}
	.st1{fill:#0031FF;}
	.st2{clip-path:url(#SVGID_00000125566015304236646290000013892598170814917789_);}
	.st3{fill:#D8D8D8;fill-opacity:0;}
	.st4{clip-path:url(#SVGID_00000125566015304236646290000013892598170814917789_);fill:#0031FF;}
	.st5{clip-path:url(#SVGID_00000017489770437799517750000013183825753280667579_);fill:#0031FF;}
	.st6{clip-path:url(#SVGID_00000078045526400086523830000010896542481741827471_);fill:#0031FF;}
	.st7{clip-path:url(#SVGID_00000098932669780151616740000002096987405406676615_);fill:#0031FF;}
	.st8{clip-path:url(#SVGID_00000098932669780151616740000002096987405406676615_);}
</style>
<g>
	<defs>
		<rect id="SVGID_1_" width="669.3" height="100"/>
	</defs>
	<clipPath id="SVGID_00000119814632305500851120000003454329549567871117_">
		<use xlink:href="#SVGID_1_"  style="overflow:visible;"/>
	</clipPath>
	<path style="clip-path:url(#SVGID_00000119814632305500851120000003454329549567871117_);fill:#0031FF;" d="M20.2,96.9
		C7.8,84.8,0,67.4,0,50S7.8,15.2,20.2,3h12.8c-9.5,13.9-14.6,30.1-14.6,47s5.2,33,14.7,47H20.2z"/>
	<path style="clip-path:url(#SVGID_00000119814632305500851120000003454329549567871117_);fill:#0031FF;" d="M43.4,2.9h21.3
		l21.2,72.9h0.3l23.4-72.9h20.5l23.6,72.9h0.3l21.6-72.9H196l-31.6,94h-21.3l-23.4-72.1h-0.3L95.9,96.9H74.6L43.4,2.9z"/>
	<path style="clip-path:url(#SVGID_00000119814632305500851120000003454329549567871117_);fill:#0031FF;" d="M199.6,49.9
		c0-26.5,15.5-49.6,55.3-49.6s55.3,23.2,55.3,49.6c0,26.5-15.5,49.6-55.3,49.6S199.6,76.4,199.6,49.9z M289.6,49.9
		c0-20.7-12.6-34.9-34.7-34.9s-34.7,14.2-34.7,34.9c0,20.7,12.6,34.9,34.7,34.9S289.6,70.6,289.6,49.9z"/>
	<path style="clip-path:url(#SVGID_00000119814632305500851120000003454329549567871117_);fill:#0031FF;" d="M324.1,2.9h59.5
		c24,0,31.7,10.9,31.7,25.5c0,12.2-6.7,19.9-15.5,22.6v0.3c11.2,2.4,13.7,12.1,13.7,25.4c0,4.5,0.1,15,3.9,20.1h-21.3
		c-1.4-2.6-2.4-7.4-2.4-14.2c0-13.4-1.8-22.9-16.3-22.9h-33.6v37.1h-19.7L324.1,2.9L324.1,2.9z M377.9,45c10.9,0,16.8-3.3,16.8-13.8
		c0-9.7-6.4-13.6-16.8-13.6h-34.1V45C343.8,45,377.9,45,377.9,45z"/>
	<path style="clip-path:url(#SVGID_00000119814632305500851120000003454329549567871117_);fill:#0031FF;" d="M431.3,2.9h19.7v43.6
		l48-43.6h27.1l-43.8,38.2L529,96.9h-26.7L467,53.6l-15.9,14.1v29.2h-19.7L431.3,2.9L431.3,2.9z"/>
	<path style="clip-path:url(#SVGID_00000119814632305500851120000003454329549567871117_);fill:#0031FF;" d="M575,0.3
		c14.5,0,43.4,2.6,45.9,29.9h-21.3C599,22.9,592.4,15,575.9,15c-13.2,0-21.8,4.1-21.8,12.9c0,22.1,70,0.9,70,41.1
		c0,24.2-25.1,30.5-45.1,30.5c-33.8,0-47.4-13.3-47.6-33h21.3c0.5,12.4,10.8,18.3,27,18.3c12,0,23.2-3.6,23.2-13.8
		c0-23.3-69.2-3-69.2-41.6C533.6,8.5,552.1,0.3,575,0.3z"/>
	<path style="clip-path:url(#SVGID_00000119814632305500851120000003454329549567871117_);fill:#0031FF;" d="M636.3,97
		C645.8,83,651,66.8,651,50s-5.2-33-14.7-47h12.8c12.4,12.2,20.2,29.5,20.2,47s-7.8,34.8-20.2,47H636.3z"/>
</g>
</svg>
