<?xml version="1.0" encoding="utf-8"?>
<!-- Generator: Adobe Illustrator 26.1.0, SVG Export Plug-In . SVG Version: 6.00 Build 0)  -->
<svg version="1.1" id="레이어_1" xmlns="http://www.w3.org/2000/svg" xmlns:xlink="http://www.w3.org/1999/xlink" x="0px"
	 y="0px" viewBox="0 0 351.3 100" style="enable-background:new 0 0 351.3 100;" xml:space="preserve">
<style type="text/css">
	.st0{clip-path:url(#SVGID_00000123406374516351260400000018372139803777909424_);fill:#0031FF;}
	.st1{fill:#0031FF;}
	.st2{clip-path:url(#SVGID_00000042722287719359193040000003445242472263304853_);}
	.st3{fill:#D8D8D8;fill-opacity:0;}
	.st4{clip-path:url(#SVGID_00000042722287719359193040000003445242472263304853_);fill:#0031FF;}
	.st5{clip-path:url(#SVGID_00000031171793468594111130000001764481995034985911_);fill:#0031FF;}
	.st6{clip-path:url(#SVGID_00000137850340159766025370000003563571199922639807_);fill:#0031FF;}
	.st7{clip-path:url(#SVGID_00000174572247183582442630000007915140638495854227_);fill:#0031FF;}
	.st8{clip-path:url(#SVGID_00000174572247183582442630000007915140638495854227_);}
</style>
<g>
	<path class="st1" d="M0,3h19.7v94H0V3z"/>
	<path class="st1" d="M38.9,3h22.6l55.9,70.5h0.3V3h18.9v94h-22.2L58.2,26.4h-0.3V97H38.9L38.9,3L38.9,3z"/>
	<path class="st1" d="M155.9,3h78.2v14.7h-58.4v23.7h55.3v14.7h-55.3V97h-19.7L155.9,3L155.9,3z"/>
	<path class="st1" d="M240.8,50c0-26.5,15.5-49.6,55.3-49.6s55.3,23.2,55.3,49.6s-15.5,49.6-55.3,49.6S240.8,76.4,240.8,50z
		 M330.8,50c0-20.7-12.6-34.9-34.7-34.9S261.3,29.3,261.3,50s12.6,34.9,34.7,34.9S330.8,70.6,330.8,50z"/>
</g>
</svg>
