<?xml version="1.0" encoding="utf-8"?>
<!-- Generator: Adobe Illustrator 26.1.0, SVG Export Plug-In . SVG Version: 6.00 Build 0)  -->
<svg version="1.1" id="레이어_1" xmlns="http://www.w3.org/2000/svg" xmlns:xlink="http://www.w3.org/1999/xlink" x="0px"
	 y="0px" viewBox="0 0 183.9 100" style="enable-background:new 0 0 183.9 100;" xml:space="preserve">
<style type="text/css">
	.st0{clip-path:url(#SVGID_00000099662582408021770850000017072107010244984200_);fill:#0031FF;}
	.st1{fill:#0031FF;}
	.st2{clip-path:url(#SVGID_00000010298599283687743730000013103119479229935774_);}
	.st3{fill:#D8D8D8;fill-opacity:0;}
	.st4{clip-path:url(#SVGID_00000010298599283687743730000013103119479229935774_);fill:#0031FF;}
	.st5{clip-path:url(#SVGID_00000121968695949878744980000018432707949388060821_);fill:#0031FF;}
	.st6{clip-path:url(#SVGID_00000026886281172140911770000012075669330387668378_);fill:#0031FF;}
	.st7{clip-path:url(#SVGID_00000030464652490430624830000006565603216526857347_);fill:#0031FF;}
	.st8{clip-path:url(#SVGID_00000030464652490430624830000006565603216526857347_);}
</style>
<g>
	<defs>
		<rect id="SVGID_00000123417822817732869980000017977773049327012523_" width="183.9" height="100"/>
	</defs>
	<clipPath id="SVGID_00000121260244901670073840000016200578648067268524_">
		<use xlink:href="#SVGID_00000123417822817732869980000017977773049327012523_"  style="overflow:visible;"/>
	</clipPath>
	<path style="clip-path:url(#SVGID_00000121260244901670073840000016200578648067268524_);fill:#0031FF;" d="M20.2,96.9
		C7.8,84.8,0,67.4,0,50S7.8,15.2,20.2,3h12.8c-9.5,13.9-14.6,30.1-14.6,47s5.2,33,14.7,47H20.2z"/>
	<path style="clip-path:url(#SVGID_00000121260244901670073840000016200578648067268524_);fill:#0031FF;" d="M80,48.5L44.2,3h24.6
		l23.4,32.6L116.6,3h23.8l-36.5,45.5L142.4,97h-25L91.8,62.3L66,97H41.7L80,48.5z"/>
	<path style="clip-path:url(#SVGID_00000121260244901670073840000016200578648067268524_);fill:#0031FF;" d="M151,96.9
		c9.5-13.9,14.7-30.1,14.7-47s-5.2-33-14.7-47h12.8c12.4,12.2,20.2,29.5,20.2,47s-7.8,34.8-20.2,47H151z"/>
</g>
</svg>
