<?xml version="1.0" encoding="utf-8"?>
<!-- Generator: Adobe Illustrator 26.1.0, SVG Export Plug-In . SVG Version: 6.00 Build 0)  -->
<svg version="1.1" id="레이어_1" xmlns="http://www.w3.org/2000/svg" xmlns:xlink="http://www.w3.org/1999/xlink" x="0px"
	 y="0px" viewBox="0 0 460.2 100" style="enable-background:new 0 0 460.2 100;" xml:space="preserve">
<style type="text/css">
	.st0{clip-path:url(#SVGID_00000070077975387752877450000004628488688417364124_);fill:#0031FF;}
	.st1{fill:#0031FF;}
	.st2{clip-path:url(#SVGID_00000176005338235950977920000000729122390116790713_);}
	.st3{fill:#D8D8D8;fill-opacity:0;}
	.st4{clip-path:url(#SVGID_00000176005338235950977920000000729122390116790713_);fill:#0031FF;}
	.st5{clip-path:url(#SVGID_00000069380813615241832380000011605740300609282714_);fill:#0031FF;}
	.st6{clip-path:url(#SVGID_00000098942936110057192440000017019821307300957612_);fill:#0031FF;}
	.st7{clip-path:url(#SVGID_00000063621957313377638350000011734897985936454533_);fill:#0031FF;}
	.st8{clip-path:url(#SVGID_00000063621957313377638350000011734897985936454533_);}
</style>
<g>
	<path class="st1" d="M0,3h19.7v36.6H78V3h19.7v94H78V54.3H19.7V97H0V3z"/>
	<path class="st1" d="M111.7,50c0-26.5,15.5-49.6,55.3-49.6s55.3,23.2,55.3,49.6S206.7,99.6,167,99.6S111.7,76.4,111.7,50z
		 M201.7,50c0-20.7-12.6-34.9-34.7-34.9S132.2,29.3,132.2,50s12.6,34.9,34.7,34.9S201.7,70.6,201.7,50z"/>
	<path class="st1" d="M236.2,3h28.4l32.9,72.9L330.2,3h28.2v94h-18.6l0.8-77.6h-0.3l-34.7,77.6h-16.8l-34.5-77.6H254l0.8,77.6h-18.6
		L236.2,3L236.2,3z"/>
	<path class="st1" d="M377.5,3h81.6v14.7h-61.8v23.7h59.3v14.7h-59.3v26.1h62.9V97h-82.6V3z"/>
</g>
</svg>
