<?xml version="1.0" encoding="utf-8"?>
<!-- Generator: Adobe Illustrator 26.1.0, SVG Export Plug-In . SVG Version: 6.00 Build 0)  -->
<svg version="1.1" id="레이어_1" xmlns="http://www.w3.org/2000/svg" xmlns:xlink="http://www.w3.org/1999/xlink" x="0px"
	 y="0px" viewBox="0 0 580.7 100" style="enable-background:new 0 0 580.7 100;" xml:space="preserve">
<style type="text/css">
	.st0{clip-path:url(#SVGID_00000011718157473132556450000011081695802051878329_);fill:#0031FF;}
	.st1{fill:#0031FF;}
	.st2{clip-path:url(#SVGID_00000064319011448513350330000005873847957675403424_);}
	.st3{fill:#D8D8D8;fill-opacity:0;}
	.st4{clip-path:url(#SVGID_00000064319011448513350330000005873847957675403424_);fill:#0031FF;}
	.st5{clip-path:url(#SVGID_00000170273787744562168510000003781551601733960857_);fill:#0031FF;}
	.st6{clip-path:url(#SVGID_00000028325128924215903040000011109625543886348930_);fill:#0031FF;}
	.st7{clip-path:url(#SVGID_00000055695159773497630260000005019213152440114832_);fill:#0031FF;}
	.st8{clip-path:url(#SVGID_00000055695159773497630260000005019213152440114832_);}
</style>
<g>
	<path class="st1" d="M0,2.9h21.3l21.2,72.9h0.3L66.2,2.9h20.5l23.6,72.9h0.3l21.6-72.9h20.5l-31.6,94H99.7L76.3,24.8h-0.3
		L52.5,96.9H31.2L0,2.9z"/>
	<path class="st1" d="M156.2,49.9c0-26.5,15.5-49.6,55.3-49.6s55.3,23.2,55.3,49.6c0,26.5-15.5,49.6-55.3,49.6
		S156.2,76.4,156.2,49.9z M246.2,49.9c0-20.7-12.6-34.9-34.7-34.9s-34.7,14.2-34.7,34.9c0,20.7,12.6,34.9,34.7,34.9
		S246.2,70.6,246.2,49.9z"/>
	<path class="st1" d="M280.7,2.9h59.5c24,0,31.7,10.9,31.7,25.5c0,12.2-6.7,19.9-15.5,22.6v0.3c11.2,2.4,13.7,12.1,13.7,25.4
		c0,4.5,0.1,15,3.9,20.1h-21.3c-1.4-2.6-2.4-7.4-2.4-14.2c0-13.4-1.8-22.9-16.3-22.9h-33.6v37.1h-19.7L280.7,2.9L280.7,2.9z
		 M334.5,45c10.9,0,16.8-3.3,16.8-13.8c0-9.7-6.4-13.6-16.8-13.6h-34.1V45C300.4,45,334.5,45,334.5,45z"/>
	<path class="st1" d="M387.9,2.9h19.7v43.6l48-43.6h27.1L439,41.1l46.6,55.8h-26.7l-35.3-43.3l-15.9,14.1v29.2h-19.7L387.9,2.9
		L387.9,2.9z"/>
	<path class="st1" d="M531.6,0.3c14.5,0,43.4,2.6,45.9,29.9h-21.3C555.6,22.9,549,15,532.5,15c-13.2,0-21.8,4.1-21.8,12.9
		c0,22.1,70,0.9,70,41.1c0,24.2-25.1,30.5-45.1,30.5c-33.8,0-47.4-13.3-47.6-33h21.3c0.5,12.4,10.8,18.3,27,18.3
		c12,0,23.2-3.6,23.2-13.8c0-23.3-69.2-3-69.2-41.6C490.2,8.5,508.7,0.3,531.6,0.3z"/>
</g>
</svg>
