<?xml version="1.0" encoding="utf-8"?>
<!-- Generator: Adobe Illustrator 26.1.0, SVG Export Plug-In . SVG Version: 6.00 Build 0)  -->
<svg version="1.1" id="레이어_1" xmlns="http://www.w3.org/2000/svg" xmlns:xlink="http://www.w3.org/1999/xlink" x="0px"
	 y="0px" viewBox="0 0 1087.2 100" style="enable-background:new 0 0 1087.2 100;" xml:space="preserve">
<style type="text/css">
	.st0{clip-path:url(#SVGID_00000031203935478481571940000008612950607664293007_);fill:#0031FF;}
	.st1{fill:#0031FF;}
	.st2{clip-path:url(#SVGID_00000040552397671366851810000017910390924020880279_);}
	.st3{fill:#D8D8D8;fill-opacity:0;}
	.st4{clip-path:url(#SVGID_00000040552397671366851810000017910390924020880279_);fill:#0031FF;}
	.st5{clip-path:url(#SVGID_00000165211749789683158570000002079364294243677879_);fill:#0031FF;}
	.st6{clip-path:url(#SVGID_00000183218100860233367080000015738762808945493408_);fill:#0031FF;}
	.st7{clip-path:url(#SVGID_00000029013347378436357010000012855446777649817235_);fill:#0031FF;}
	.st8{clip-path:url(#SVGID_00000029013347378436357010000012855446777649817235_);}
</style>
<g>
	<path class="st1" d="M0,2.9h57.9c23,0,30.5,14.1,30.5,29.2c0,14.3-9.1,29-30.3,29H19.7v35.8H0L0,2.9L0,2.9z M19.7,46.4h31.7
		c11.2,0,17.2-3,17.2-14.2c0-11.6-8.2-14.5-15.8-14.5H19.7L19.7,46.4L19.7,46.4z"/>
	<path class="st1" d="M128.6,2.9H152l41.8,94h-22L162,73.6h-44.2L108,96.9H86.7L128.6,2.9z M156.1,58.9L140,19.3l-16.3,39.6
		L156.1,58.9L156.1,58.9z"/>
	<path class="st1" d="M202.3,2.9h59.5c24,0,31.7,10.9,31.7,25.5c0,12.2-6.7,19.9-15.5,22.6v0.3c11.2,2.4,13.7,12.1,13.7,25.4
		c0,4.5,0.1,15,3.9,20.1h-21.3c-1.4-2.6-2.4-7.4-2.4-14.2c0-13.4-1.8-22.9-16.3-22.9H222v37.1h-19.7L202.3,2.9L202.3,2.9z M256.1,45
		c10.9,0,16.8-3.3,16.8-13.8c0-9.7-6.4-13.6-16.8-13.6H222V45C222,45,256.1,45,256.1,45z"/>
	<path class="st1" d="M335.2,17.7h-35.3V2.9h90.3v14.7h-35.3v79.2h-19.7L335.2,17.7L335.2,17.7z"/>
	<path class="st1" d="M399.8,2.9h19.7v94h-19.7V2.9z"/>
	<path class="st1" d="M516,37.7C514,23.5,502.3,15,485.7,15C467.5,15,454,27.2,454,51.6c0,19.6,13.6,33.2,33,33.2
		c20.5,0,27.4-13.9,29-23.8h21.3c-2.8,18.7-15,38.6-53.7,38.6c-34,0-50.1-23.2-50.1-49.6c0-26.5,15.5-49.6,52.5-49.6
		c32.4,0,49.2,17.1,51.3,37.4H516z"/>
	<path class="st1" d="M553.2,2.9h19.7v94h-19.7V2.9z"/>
	<path class="st1" d="M592.1,2.9H650c23,0,30.5,14.1,30.5,29.2c0,14.3-9.1,29-30.3,29h-38.4v35.8h-19.7V2.9z M611.9,46.4h31.7
		c11.2,0,17.2-3,17.2-14.2c0-11.6-8.2-14.5-15.8-14.5h-33.2L611.9,46.4L611.9,46.4z"/>
	<path class="st1" d="M720.7,2.9h23.4l41.8,94h-22l-9.9-23.3h-44.2l-9.7,23.3h-21.3L720.7,2.9z M748.2,58.9l-16.1-39.6l-16.3,39.6
		H748.2z"/>
	<path class="st1" d="M794.4,2.9H817L873,73.5h0.3V2.9h18.9v94h-22.2l-56.3-70.5h-0.3v70.5h-18.9L794.4,2.9L794.4,2.9z"/>
	<path class="st1" d="M937,17.7h-35.3V2.9H992v14.7h-35.3v79.2H937V17.7z"/>
	<path class="st1" d="M1038.1,0.3c14.5,0,43.4,2.6,45.9,29.9h-21.3c-0.7-7.2-7.2-15.1-23.7-15.1c-13.2,0-21.8,4.1-21.8,12.9
		c0,22.1,70,0.9,70,41.1c0,24.2-25.1,30.5-45.1,30.5c-33.8,0-47.4-13.3-47.6-33h21.3c0.5,12.4,10.8,18.3,27,18.3
		c12,0,23.2-3.6,23.2-13.8c0-23.3-69.2-3-69.2-41.6C996.7,8.5,1015.2,0.3,1038.1,0.3z"/>
</g>
</svg>
