<?xml version="1.0" encoding="utf-8"?>
<!-- Generator: Adobe Illustrator 26.1.0, SVG Export Plug-In . SVG Version: 6.00 Build 0)  -->
<svg version="1.1" id="레이어_1" xmlns="http://www.w3.org/2000/svg" xmlns:xlink="http://www.w3.org/1999/xlink" x="0px"
	 y="0px" viewBox="0 0 1175.5 100" style="enable-background:new 0 0 1175.5 100;" xml:space="preserve">
<style type="text/css">
	.st0{clip-path:url(#SVGID_00000181074282392432342560000011402299549393774769_);fill:#0031FF;}
	.st1{fill:#0031FF;}
	.st2{clip-path:url(#SVGID_00000004509666636508266500000002636853961894036899_);}
	.st3{fill:#D8D8D8;fill-opacity:0;}
	.st4{clip-path:url(#SVGID_00000004509666636508266500000002636853961894036899_);fill:#0031FF;}
	.st5{clip-path:url(#SVGID_00000080906978515802967390000003728524469959798705_);fill:#0031FF;}
	.st6{clip-path:url(#SVGID_00000035492351493656360240000008210500857828919994_);fill:#0031FF;}
	.st7{clip-path:url(#SVGID_00000134932559906526157710000002386809585961632901_);fill:#0031FF;}
	.st8{clip-path:url(#SVGID_00000134932559906526157710000002386809585961632901_);}
</style>
<g>
	<defs>
		<rect id="SVGID_00000121277205650055193560000007952755238621579425_" width="1175.5" height="99.9"/>
	</defs>
	<clipPath id="SVGID_00000093888724484545104490000007761325969027431814_">
		<use xlink:href="#SVGID_00000121277205650055193560000007952755238621579425_"  style="overflow:visible;"/>
	</clipPath>
	<path style="clip-path:url(#SVGID_00000093888724484545104490000007761325969027431814_);fill:#0031FF;" d="M20.2,96.9
		C7.8,84.8,0,67.4,0,50S7.8,15.2,20.2,3h12.8c-9.5,13.9-14.6,30.1-14.6,47s5.2,33,14.7,47H20.2z"/>
	<path style="clip-path:url(#SVGID_00000093888724484545104490000007761325969027431814_);fill:#0031FF;" d="M43,2.9h57.9
		c23,0,30.5,14.1,30.5,29.2c0,14.3-9.1,29-30.3,29H62.7v35.8H43L43,2.9L43,2.9z M62.7,46.4h31.7c11.2,0,17.2-3,17.2-14.2
		c0-11.6-8.2-14.5-15.8-14.5H62.7L62.7,46.4L62.7,46.4z"/>
	<path style="clip-path:url(#SVGID_00000093888724484545104490000007761325969027431814_);fill:#0031FF;" d="M171.6,2.9H195l41.8,94
		h-22L205,73.6h-44.2L151,96.9h-21.3L171.6,2.9z M199.1,58.9L183,19.3l-16.3,39.6L199.1,58.9L199.1,58.9z"/>
	<path style="clip-path:url(#SVGID_00000093888724484545104490000007761325969027431814_);fill:#0031FF;" d="M245.3,2.9h59.5
		c24,0,31.7,10.9,31.7,25.5c0,12.2-6.7,19.9-15.5,22.6v0.3c11.2,2.4,13.7,12.1,13.7,25.4c0,4.5,0.1,15,3.9,20.1h-21.3
		c-1.4-2.6-2.4-7.4-2.4-14.2c0-13.4-1.8-22.9-16.3-22.9H265v37.1h-19.7L245.3,2.9L245.3,2.9z M299.1,45c10.9,0,16.8-3.3,16.8-13.8
		c0-9.7-6.4-13.6-16.8-13.6H265V45C265,45,299.1,45,299.1,45z"/>
	<path style="clip-path:url(#SVGID_00000093888724484545104490000007761325969027431814_);fill:#0031FF;" d="M378.2,17.7h-35.3V2.9
		h90.3v14.7h-35.3v79.2h-19.7L378.2,17.7L378.2,17.7z"/>
	<path style="clip-path:url(#SVGID_00000093888724484545104490000007761325969027431814_);fill:#0031FF;" d="M442.8,2.9h19.7v94
		h-19.7V2.9z"/>
	<path style="clip-path:url(#SVGID_00000093888724484545104490000007761325969027431814_);fill:#0031FF;" d="M559,37.7
		C557,23.5,545.3,15,528.7,15C510.5,15,497,27.2,497,51.6c0,19.6,13.6,33.2,33,33.2c20.5,0,27.4-13.9,29-23.8h21.3
		c-2.8,18.7-15,38.6-53.7,38.6c-34,0-50.1-23.2-50.1-49.6c0-26.5,15.5-49.6,52.5-49.6c32.4,0,49.2,17.1,51.3,37.4H559z"/>
	<path style="clip-path:url(#SVGID_00000093888724484545104490000007761325969027431814_);fill:#0031FF;" d="M596.2,2.9h19.7v94
		h-19.7V2.9z"/>
	<path style="clip-path:url(#SVGID_00000093888724484545104490000007761325969027431814_);fill:#0031FF;" d="M635.1,2.9H693
		c23,0,30.5,14.1,30.5,29.2c0,14.3-9.1,29-30.3,29h-38.4v35.8h-19.7V2.9z M654.9,46.4h31.7c11.2,0,17.2-3,17.2-14.2
		c0-11.6-8.2-14.5-15.8-14.5h-33.2L654.9,46.4L654.9,46.4z"/>
	<path style="clip-path:url(#SVGID_00000093888724484545104490000007761325969027431814_);fill:#0031FF;" d="M763.7,2.9h23.4
		l41.8,94h-22l-9.9-23.3h-44.2l-9.7,23.3h-21.3L763.7,2.9z M791.2,58.9l-16.1-39.6l-16.3,39.6H791.2z"/>
	<path style="clip-path:url(#SVGID_00000093888724484545104490000007761325969027431814_);fill:#0031FF;" d="M837.4,2.9H860
		L916,73.5h0.3V2.9h18.9v94h-22.2l-56.3-70.5h-0.3v70.5h-18.9L837.4,2.9L837.4,2.9z"/>
	<path style="clip-path:url(#SVGID_00000093888724484545104490000007761325969027431814_);fill:#0031FF;" d="M980,17.7h-35.3V2.9
		h90.3v14.7h-35.3v79.2H980V17.7z"/>
	<path style="clip-path:url(#SVGID_00000093888724484545104490000007761325969027431814_);fill:#0031FF;" d="M1081.1,0.3
		c14.5,0,43.4,2.6,45.9,29.9h-21.3c-0.7-7.2-7.2-15.1-23.7-15.1c-13.2,0-21.8,4.1-21.8,12.9c0,22.1,70,0.9,70,41.1
		c0,24.2-25.1,30.5-45.1,30.5c-33.8,0-47.4-13.3-47.6-33h21.3c0.5,12.4,10.8,18.3,27,18.3c12,0,23.2-3.6,23.2-13.8
		c0-23.3-69.2-3-69.2-41.6C1039.7,8.5,1058.2,0.3,1081.1,0.3z"/>
	<g style="clip-path:url(#SVGID_00000093888724484545104490000007761325969027431814_);">
		<path class="st1" d="M1142.6,96.9c9.5-13.9,14.7-30.1,14.7-47s-5.2-33-14.7-47h12.8c12.4,12.2,20.2,29.5,20.2,47
			s-7.8,34.8-20.2,47H1142.6z"/>
	</g>
</g>
</svg>
