<?xml version="1.0" encoding="utf-8"?>
<!-- Generator: Adobe Illustrator 26.1.0, SVG Export Plug-In . SVG Version: 6.00 Build 0)  -->
<svg version="1.1" id="레이어_1" xmlns="http://www.w3.org/2000/svg" xmlns:xlink="http://www.w3.org/1999/xlink" x="0px"
	 y="0px" viewBox="0 0 440 100" style="enable-background:new 0 0 440 100;" xml:space="preserve">
<style type="text/css">
	.st0{clip-path:url(#SVGID_00000114055219718747948910000000374777457850853006_);fill:#0031FF;}
	.st1{fill:#0031FF;}
	.st2{clip-path:url(#SVGID_00000083065900697386640560000014452789800530043325_);}
	.st3{fill:#D8D8D8;fill-opacity:0;}
	.st4{clip-path:url(#SVGID_00000083065900697386640560000014452789800530043325_);fill:#0031FF;}
	.st5{clip-path:url(#SVGID_00000052785971064904012990000003578260839788493952_);fill:#0031FF;}
	.st6{clip-path:url(#SVGID_00000124127467292913077070000017543318177860017566_);fill:#0031FF;}
	.st7{clip-path:url(#SVGID_00000111908345487628471310000010165063105442874798_);fill:#0031FF;}
	.st8{clip-path:url(#SVGID_00000111908345487628471310000010165063105442874798_);}
</style>
<g>
	<defs>
		<rect id="SVGID_00000070102785387980852800000009475753945865025704_" width="440" height="100"/>
	</defs>
	<clipPath id="SVGID_00000036228063408221930490000015482936950651193225_">
		<use xlink:href="#SVGID_00000070102785387980852800000009475753945865025704_"  style="overflow:visible;"/>
	</clipPath>
	<path style="clip-path:url(#SVGID_00000036228063408221930490000015482936950651193225_);fill:#0031FF;" d="M20.2,97
		C7.8,84.8,0,67.5,0,50s7.8-34.8,20.2-47h12.8C23.5,17,18.3,33.2,18.3,50s5.2,33,14.7,47H20.2z"/>
	<path style="clip-path:url(#SVGID_00000036228063408221930490000015482936950651193225_);fill:#0031FF;" d="M43,3h19.7v94H43V3z"/>
	<path style="clip-path:url(#SVGID_00000036228063408221930490000015482936950651193225_);fill:#0031FF;" d="M82,3h22.6l55.9,70.5
		h0.3V3h18.9v94h-22.2l-56.3-70.5h-0.3V97H82L82,3L82,3z"/>
	<path style="clip-path:url(#SVGID_00000036228063408221930490000015482936950651193225_);fill:#0031FF;" d="M198.9,3h78.2v14.7
		h-58.4v23.7h55.3v14.7h-55.3V97h-19.7L198.9,3L198.9,3z"/>
	<path style="clip-path:url(#SVGID_00000036228063408221930490000015482936950651193225_);fill:#0031FF;" d="M283.8,50
		c0-26.5,15.5-49.6,55.3-49.6s55.3,23.2,55.3,49.6s-15.5,49.6-55.3,49.6S283.8,76.4,283.8,50z M373.8,50c0-20.7-12.6-34.9-34.7-34.9
		c-22.1,0-34.7,14.2-34.7,34.9s12.6,34.9,34.7,34.9C361.2,84.8,373.8,70.6,373.8,50z"/>
	<path style="clip-path:url(#SVGID_00000036228063408221930490000015482936950651193225_);fill:#0031FF;" d="M407,96.9
		c9.5-13.9,14.7-30.1,14.7-47s-5.2-33-14.7-47h12.8C432.2,15.2,440,32.5,440,50s-7.8,34.8-20.2,47H407z"/>
</g>
</svg>
